{
	"asset":{
		"generator":"Khronos glTF Blender I/O v4.3.47",
		"version":"2.0"
	},
	"scene":1,
	"scenes":[
		{
			"name":"Claw",
			"nodes":[
				1
			]
		},
		{
			"name":"ClawShip",
			"nodes":[
				2
			]
		},
		{
			"name":"Main",
			"nodes":[
				3
			]
		},
		{
			"name":"Sidewinder",
			"nodes":[
				4
			]
		}
	],
	"nodes":[
		{
			"name":"Empty.001",
			"rotation":[
				-0.8660253882408142,
				0,
				0,
				0.4999999701976776
			]
		},
		{
			"children":[
				0
			],
			"mesh":0,
			"name":"claw.001",
			"scale":[
				0.8958512544631958,
				0.8958513736724854,
				0.8958513736724854
			]
		},
		{
			"mesh":1,
			"name":"clawship.001",
			"rotation":[
				0,
				0,
				0.7071068286895752,
				0.7071068286895752
			]
		},
		{
			"mesh":2,
			"name":"clawship",
			"rotation":[
				0,
				0,
				0.7071068286895752,
				0.7071068286895752
			]
		},
		{
			"mesh":3,
			"name":"sidewinder",
			"scale":[
				2.722888469696045,
				2.722888469696045,
				2.722888469696045
			]
		}
	],
	"materials":[
		{
			"doubleSided":true,
			"name":"claw_material.001",
			"pbrMetallicRoughness":{
				"baseColorTexture":{
					"index":0
				},
				"metallicFactor":0,
				"roughnessFactor":0.5
			}
		},
		{
			"doubleSided":true,
			"name":"Material.001",
			"pbrMetallicRoughness":{
				"baseColorTexture":{
					"index":1
				},
				"metallicFactor":0,
				"roughnessFactor":0.5
			}
		},
		{
			"doubleSided":true,
			"name":"Material",
			"pbrMetallicRoughness":{
				"baseColorTexture":{
					"index":2
				},
				"metallicFactor":0,
				"roughnessFactor":0.5
			}
		},
		{
			"doubleSided":true,
			"name":"sidewinder",
			"pbrMetallicRoughness":{
				"baseColorTexture":{
					"index":3
				},
				"roughnessFactor":0.4329896867275238
			}
		}
	],
	"meshes":[
		{
			"name":"Cube.003",
			"primitives":[
				{
					"attributes":{
						"POSITION":0,
						"NORMAL":1,
						"TEXCOORD_0":2
					},
					"indices":3,
					"material":0
				}
			]
		},
		{
			"name":"Cube.004",
			"primitives":[
				{
					"attributes":{
						"POSITION":4,
						"NORMAL":5,
						"TEXCOORD_0":6
					},
					"indices":7,
					"material":1
				}
			]
		},
		{
			"name":"Cube",
			"primitives":[
				{
					"attributes":{
						"POSITION":8,
						"NORMAL":9,
						"TEXCOORD_0":10
					},
					"indices":7,
					"material":2
				}
			]
		},
		{
			"name":"Cube.001",
			"primitives":[
				{
					"attributes":{
						"POSITION":11,
						"NORMAL":12,
						"TEXCOORD_0":13
					},
					"indices":14,
					"material":3
				}
			]
		}
	],
	"textures":[
		{
			"sampler":0,
			"source":0
		},
		{
			"sampler":0,
			"source":1
		},
		{
			"sampler":0,
			"source":1
		},
		{
			"sampler":0,
			"source":2
		}
	],
	"images":[
		{
			"mimeType":"image/png",
			"name":"claw_texture",
			"uri":"claw_texture.png"
		},
		{
			"mimeType":"image/png",
			"name":"ship_material",
			"uri":"ship_material.png"
		},
		{
			"mimeType":"image/png",
			"name":"sidewinder_texture",
			"uri":"sidewinder_texture.png"
		}
	],
	"accessors":[
		{
			"bufferView":0,
			"componentType":5126,
			"count":412,
			"max":[
				1.1151418685913086,
				0.938923180103302,
				1.0841751098632812
			],
			"min":[
				-1.034537434577942,
				-0.9389232993125916,
				-0.5799756646156311
			],
			"type":"VEC3"
		},
		{
			"bufferView":1,
			"componentType":5126,
			"count":412,
			"type":"VEC3"
		},
		{
			"bufferView":2,
			"componentType":5126,
			"count":412,
			"type":"VEC2"
		},
		{
			"bufferView":3,
			"componentType":5123,
			"count":612,
			"type":"SCALAR"
		},
		{
			"bufferView":4,
			"componentType":5126,
			"count":645,
			"max":[
				3.366011619567871,
				3.040987014770508,
				0.9507206082344055
			],
			"min":[
				-3.366011619567871,
				-2.811952590942383,
				-2.4870588779449463
			],
			"type":"VEC3"
		},
		{
			"bufferView":5,
			"componentType":5126,
			"count":645,
			"type":"VEC3"
		},
		{
			"bufferView":6,
			"componentType":5126,
			"count":645,
			"type":"VEC2"
		},
		{
			"bufferView":7,
			"componentType":5123,
			"count":1068,
			"type":"SCALAR"
		},
		{
			"bufferView":8,
			"componentType":5126,
			"count":645,
			"max":[
				3.366011619567871,
				3.040987014770508,
				0.9507206082344055
			],
			"min":[
				-3.366011619567871,
				-2.811952590942383,
				-2.4870588779449463
			],
			"type":"VEC3"
		},
		{
			"bufferView":9,
			"componentType":5126,
			"count":645,
			"type":"VEC3"
		},
		{
			"bufferView":10,
			"componentType":5126,
			"count":645,
			"type":"VEC2"
		},
		{
			"bufferView":11,
			"componentType":5126,
			"count":244,
			"max":[
				1.0752081871032715,
				1.1610591411590576,
				0.2285396158695221
			],
			"min":[
				-1.0646556615829468,
				-1.1610591411590576,
				-0.41346922516822815
			],
			"type":"VEC3"
		},
		{
			"bufferView":12,
			"componentType":5126,
			"count":244,
			"type":"VEC3"
		},
		{
			"bufferView":13,
			"componentType":5126,
			"count":244,
			"type":"VEC2"
		},
		{
			"bufferView":14,
			"componentType":5123,
			"count":372,
			"type":"SCALAR"
		}
	],
	"bufferViews":[
		{
			"buffer":0,
			"byteLength":4944,
			"byteOffset":0,
			"target":34962
		},
		{
			"buffer":0,
			"byteLength":4944,
			"byteOffset":4944,
			"target":34962
		},
		{
			"buffer":0,
			"byteLength":3296,
			"byteOffset":9888,
			"target":34962
		},
		{
			"buffer":0,
			"byteLength":1224,
			"byteOffset":13184,
			"target":34963
		},
		{
			"buffer":0,
			"byteLength":7740,
			"byteOffset":14408,
			"target":34962
		},
		{
			"buffer":0,
			"byteLength":7740,
			"byteOffset":22148,
			"target":34962
		},
		{
			"buffer":0,
			"byteLength":5160,
			"byteOffset":29888,
			"target":34962
		},
		{
			"buffer":0,
			"byteLength":2136,
			"byteOffset":35048,
			"target":34963
		},
		{
			"buffer":0,
			"byteLength":7740,
			"byteOffset":37184,
			"target":34962
		},
		{
			"buffer":0,
			"byteLength":7740,
			"byteOffset":44924,
			"target":34962
		},
		{
			"buffer":0,
			"byteLength":5160,
			"byteOffset":52664,
			"target":34962
		},
		{
			"buffer":0,
			"byteLength":2928,
			"byteOffset":57824,
			"target":34962
		},
		{
			"buffer":0,
			"byteLength":2928,
			"byteOffset":60752,
			"target":34962
		},
		{
			"buffer":0,
			"byteLength":1952,
			"byteOffset":63680,
			"target":34962
		},
		{
			"buffer":0,
			"byteLength":744,
			"byteOffset":65632,
			"target":34963
		}
	],
	"samplers":[
		{
			"magFilter":9729,
			"minFilter":9987
		}
	],
	"buffers":[
		{
			"byteLength":66376,
			"uri":"ship2.bin"
		}
	]
}
